<?xml version="1.0" standalone="no"?>
<!DOCTYPE svg PUBLIC "-//W3C//DTD SVG 20010904//EN"
 "http://www.w3.org/TR/2001/REC-SVG-20010904/DTD/svg10.dtd">
<svg version="1.0" xmlns="http://www.w3.org/2000/svg"
 width="260.000000pt" height="260.000000pt" viewBox="0 0 260.000000 260.000000"
 preserveAspectRatio="xMidYMid meet">
<metadata>
Created by potrace 1.11, written by Peter Selinger 2001-2013
</metadata>
<g transform="translate(0.000000,260.000000) scale(0.100000,-0.100000)"
fill="#000000" stroke="none">
<path d="M1110 2585 c-99 -17 -193 -41 -260 -67 -331 -128 -593 -372 -733
-683 -226 -502 -111 -1092 289 -1476 180 -172 436 -299 688 -341 91 -15 321
-15 412 0 248 41 512 171 683 336 358 345 493 842 356 1311 -114 392 -402 701
-795 853 -188 73 -448 100 -640 67z m-230 -635 l0 -340 410 0 410 0 0 340 0
340 100 0 100 0 0 -785 0 -785 -100 0 -100 0 0 360 0 360 -410 0 -410 0 0
-360 0 -360 -100 0 -100 0 0 785 0 785 100 0 100 0 0 -340z m1260 -1435 l0
-45 -850 0 -850 0 0 45 0 45 850 0 850 0 0 -45z"/>
</g>
</svg>
